<svg id="visual" viewBox="0 0 450 150" width="450" height="150" xmlns="http://www.w3.org/2000/svg" xmlns:xlink="http://www.w3.org/1999/xlink" version="1.1"><path d="M0 66L8.3 73.5C16.7 81 33.3 96 50 95.8C66.7 95.7 83.3 80.3 100 76.5C116.7 72.7 133.3 80.3 150 88.3C166.7 96.3 183.3 104.7 200 97.8C216.7 91 233.3 69 250 64.2C266.7 59.3 283.3 71.7 300 73C316.7 74.3 333.3 64.7 350 67C366.7 69.3 383.3 83.7 400 92C416.7 100.3 433.3 102.7 441.7 103.8L450 105L450 151L441.7 151C433.3 151 416.7 151 400 151C383.3 151 366.7 151 350 151C333.3 151 316.7 151 300 151C283.3 151 266.7 151 250 151C233.3 151 216.7 151 200 151C183.3 151 166.7 151 150 151C133.3 151 116.7 151 100 151C83.3 151 66.7 151 50 151C33.3 151 16.7 151 8.3 151L0 151Z" fill="#e9f3ff"></path><path d="M0 127L8.3 125.8C16.7 124.7 33.3 122.3 50 117C66.7 111.7 83.3 103.3 100 98.8C116.7 94.3 133.3 93.7 150 90.3C166.7 87 183.3 81 200 82.5C216.7 84 233.3 93 250 93.7C266.7 94.3 283.3 86.7 300 85.2C316.7 83.7 333.3 88.3 350 86.7C366.7 85 383.3 77 400 74.3C416.7 71.7 433.3 74.3 441.7 75.7L450 77L450 151L441.7 151C433.3 151 416.7 151 400 151C383.3 151 366.7 151 350 151C333.3 151 316.7 151 300 151C283.3 151 266.7 151 250 151C233.3 151 216.7 151 200 151C183.3 151 166.7 151 150 151C133.3 151 116.7 151 100 151C83.3 151 66.7 151 50 151C33.3 151 16.7 151 8.3 151L0 151Z" fill="#f4f9ff"></path><path d="M0 123L8.3 120C16.7 117 33.3 111 50 112.2C66.7 113.3 83.3 121.7 100 124C116.7 126.3 133.3 122.7 150 117.5C166.7 112.3 183.3 105.7 200 102.8C216.7 100 233.3 101 250 104C266.7 107 283.3 112 300 116.7C316.7 121.3 333.3 125.7 350 125.8C366.7 126 383.3 122 400 123.3C416.7 124.7 433.3 131.3 441.7 134.7L450 138L450 151L441.7 151C433.3 151 416.7 151 400 151C383.3 151 366.7 151 350 151C333.3 151 316.7 151 300 151C283.3 151 266.7 151 250 151C233.3 151 216.7 151 200 151C183.3 151 166.7 151 150 151C133.3 151 116.7 151 100 151C83.3 151 66.7 151 50 151C33.3 151 16.7 151 8.3 151L0 151Z" fill="#ffffff"></path></svg>